<?xml version="1.0" encoding="UTF-8" standalone="no"?>
<!DOCTYPE svg PUBLIC "-//W3C//DTD SVG 1.1//EN"
 "http://www.w3.org/Graphics/SVG/1.1/DTD/svg11.dtd">
<!-- Generated by graphviz version 9.0.0 (0)
 -->
<!-- Pages: 1 -->
<svg width="276pt" height="422pt"
 viewBox="0.00 0.00 276.00 422.00" xmlns="http://www.w3.org/2000/svg" xmlns:xlink="http://www.w3.org/1999/xlink">
<g id="graph0" class="graph" transform="scale(1 1) rotate(0) translate(4 418)">
<polygon fill="white" stroke="none" points="-4,4 -4,-418 272,-418 272,4 -4,4"/>
<!-- c0&#45;node&#45;156&#45;36 -->
<g id="node1" class="node">
<title>c0&#45;node&#45;156&#45;36</title>
<g id="a_node1"><a xlink:href="/coq-tactician-stdlib.8.11.dev/theories/Init/Logic/definition/36?ignore_edges=7&amp;unshare_nodes=3&amp;unshare_nodes=5&amp;unshare_nodes=6&amp;unshare_nodes=7&amp;unshare_nodes=8&amp;max_depth=0&amp;max_size=100" xlink:title="TacticalConstant Coq.Init.Logic.and_iff_compat_l">
<path fill="lightgrey" stroke="black" stroke-width="0" d="M180.69,-414C180.69,-414 111.31,-414 111.31,-414 107.71,-414 104.11,-410.4 104.11,-406.8 104.11,-406.8 104.11,-399.6 104.11,-399.6 104.11,-396 107.71,-392.4 111.31,-392.4 111.31,-392.4 180.69,-392.4 180.69,-392.4 184.29,-392.4 187.89,-396 187.89,-399.6 187.89,-399.6 187.89,-406.8 187.89,-406.8 187.89,-410.4 184.29,-414 180.69,-414"/>
<text text-anchor="middle" x="146" y="-399.9" font-family="Helvetica,sans-Serif" font-size="11.00">and_iff_compat_l</text>
</a>
</g>
</g>
<!-- c1&#45;node&#45;156&#45;898 -->
<g id="node2" class="node">
<title>c1&#45;node&#45;156&#45;898</title>
<g id="a_node2"><a xlink:title="prod">
<ellipse fill="lightgrey" stroke="black" stroke-width="0" cx="146" cy="-359.6" rx="10.8" ry="10.8"/>
<text text-anchor="middle" x="146" y="-356.3" font-family="Helvetica,sans-Serif" font-size="11.00">∀</text>
</a>
</g>
</g>
<!-- c0&#45;node&#45;156&#45;36&#45;&gt;c1&#45;node&#45;156&#45;898 -->
<g id="edge26" class="edge">
<title>c0&#45;node&#45;156&#45;36&#45;&gt;c1&#45;node&#45;156&#45;898</title>
<g id="a_edge26"><a xlink:title="ConstType">
<path fill="none" stroke="black" stroke-width="0.6" d="M146,-388.22C146,-384.24 146,-379.89 146,-375.83"/>
<ellipse fill="black" stroke="black" stroke-width="0.6" cx="146" cy="-390.25" rx="2" ry="2"/>
<polygon fill="black" stroke="black" stroke-width="0.6" points="147.75,-376.1 146,-371.1 144.25,-376.1 147.75,-376.1"/>
</a>
</g>
</g>
<!-- c2&#45;node&#45;156&#45;187 -->
<g id="node3" class="node">
<title>c2&#45;node&#45;156&#45;187</title>
<g id="a_node3"><a xlink:title="SortProp">
<ellipse fill="lightgrey" stroke="black" stroke-width="0" cx="90" cy="-316" rx="27" ry="10.8"/>
<text text-anchor="middle" x="90" y="-312.7" font-family="Helvetica,sans-Serif" font-size="11.00">Prop</text>
</a>
</g>
</g>
<!-- c1&#45;node&#45;156&#45;898&#45;&gt;c2&#45;node&#45;156&#45;187 -->
<g id="edge1" class="edge">
<title>c1&#45;node&#45;156&#45;898&#45;&gt;c2&#45;node&#45;156&#45;187</title>
<g id="a_edge1"><a xlink:title="ProdType">
<path fill="none" stroke="black" stroke-width="0.6" d="M134.62,-350.15C126.43,-344.06 115.27,-335.77 106.16,-329.01"/>
<ellipse fill="black" stroke="black" stroke-width="0.6" cx="136.37" cy="-351.44" rx="2" ry="2"/>
<polygon fill="black" stroke="black" stroke-width="0.6" points="107.4,-327.74 102.34,-326.17 105.31,-330.55 107.4,-327.74"/>
</a>
</g>
</g>
<!-- c3&#45;node&#45;156&#45;899 -->
<g id="node4" class="node">
<title>c3&#45;node&#45;156&#45;899</title>
<g id="a_node4"><a xlink:title="prod">
<ellipse fill="lightgrey" stroke="black" stroke-width="0" cx="146" cy="-316" rx="10.8" ry="10.8"/>
<text text-anchor="middle" x="146" y="-312.7" font-family="Helvetica,sans-Serif" font-size="11.00">∀</text>
</a>
</g>
</g>
<!-- c1&#45;node&#45;156&#45;898&#45;&gt;c3&#45;node&#45;156&#45;899 -->
<g id="edge25" class="edge">
<title>c1&#45;node&#45;156&#45;898&#45;&gt;c3&#45;node&#45;156&#45;899</title>
<g id="a_edge25"><a xlink:title="ProdTerm">
<path fill="none" stroke="black" stroke-width="0.6" d="M146,-343.92C146,-340.15 146,-336.08 146,-332.27"/>
<polygon fill="black" stroke="black" stroke-width="0.6" points="144.25,-348.65 146,-343.65 147.75,-348.65 144.25,-348.65"/>
<polygon fill="black" stroke="black" stroke-width="0.6" points="147.75,-332.5 146,-327.5 144.25,-332.5 147.75,-332.5"/>
</a>
</g>
</g>
<!-- c4&#45;node&#45;156&#45;187 -->
<g id="node5" class="node">
<title>c4&#45;node&#45;156&#45;187</title>
<g id="a_node5"><a xlink:title="SortProp">
<ellipse fill="lightgrey" stroke="black" stroke-width="0" cx="118" cy="-272.4" rx="27" ry="10.8"/>
<text text-anchor="middle" x="118" y="-269.1" font-family="Helvetica,sans-Serif" font-size="11.00">Prop</text>
</a>
</g>
</g>
<!-- c3&#45;node&#45;156&#45;899&#45;&gt;c4&#45;node&#45;156&#45;187 -->
<g id="edge2" class="edge">
<title>c3&#45;node&#45;156&#45;899&#45;&gt;c4&#45;node&#45;156&#45;187</title>
<g id="a_edge2"><a xlink:title="ProdType">
<path fill="none" stroke="black" stroke-width="0.6" d="M138.05,-303.18C134.8,-298.35 131.01,-292.72 127.6,-287.67"/>
<ellipse fill="black" stroke="black" stroke-width="0.6" cx="139.32" cy="-305.07" rx="2" ry="2"/>
<polygon fill="black" stroke="black" stroke-width="0.6" points="129.11,-286.78 124.87,-283.61 126.21,-288.73 129.11,-286.78"/>
</a>
</g>
</g>
<!-- c5&#45;node&#45;156&#45;900 -->
<g id="node6" class="node">
<title>c5&#45;node&#45;156&#45;900</title>
<g id="a_node6"><a xlink:title="prod">
<ellipse fill="lightgrey" stroke="black" stroke-width="0" cx="174" cy="-272.4" rx="10.8" ry="10.8"/>
<text text-anchor="middle" x="174" y="-269.1" font-family="Helvetica,sans-Serif" font-size="11.00">∀</text>
</a>
</g>
</g>
<!-- c3&#45;node&#45;156&#45;899&#45;&gt;c5&#45;node&#45;156&#45;900 -->
<g id="edge24" class="edge">
<title>c3&#45;node&#45;156&#45;899&#45;&gt;c5&#45;node&#45;156&#45;900</title>
<g id="a_edge24"><a xlink:title="ProdTerm">
<path fill="none" stroke="black" stroke-width="0.6" d="M154.14,-302.91C157.71,-297.61 161.89,-291.39 165.5,-286.03"/>
<polygon fill="black" stroke="black" stroke-width="0.6" points="150.11,-305.75 154.36,-302.58 153.02,-307.71 150.11,-305.75"/>
<polygon fill="black" stroke="black" stroke-width="0.6" points="166.77,-287.27 168.11,-282.15 163.87,-285.32 166.77,-287.27"/>
</a>
</g>
</g>
<!-- c6&#45;node&#45;156&#45;187 -->
<g id="node7" class="node">
<title>c6&#45;node&#45;156&#45;187</title>
<g id="a_node7"><a xlink:title="SortProp">
<ellipse fill="lightgrey" stroke="black" stroke-width="0" cx="174" cy="-228.8" rx="27" ry="10.8"/>
<text text-anchor="middle" x="174" y="-225.5" font-family="Helvetica,sans-Serif" font-size="11.00">Prop</text>
</a>
</g>
</g>
<!-- c5&#45;node&#45;156&#45;900&#45;&gt;c6&#45;node&#45;156&#45;187 -->
<g id="edge3" class="edge">
<title>c5&#45;node&#45;156&#45;900&#45;&gt;c6&#45;node&#45;156&#45;187</title>
<g id="a_edge3"><a xlink:title="ProdType">
<path fill="none" stroke="black" stroke-width="0.6" d="M174,-257.42C174,-253.44 174,-249.09 174,-245.03"/>
<ellipse fill="black" stroke="black" stroke-width="0.6" cx="174" cy="-259.45" rx="2" ry="2"/>
<polygon fill="black" stroke="black" stroke-width="0.6" points="175.75,-245.3 174,-240.3 172.25,-245.3 175.75,-245.3"/>
</a>
</g>
</g>
<!-- c7&#45;node&#45;156&#45;901 -->
<g id="node8" class="node">
<title>c7&#45;node&#45;156&#45;901</title>
<g id="a_node8"><a xlink:title="prod">
<ellipse fill="lightgrey" stroke="black" stroke-width="0" cx="118" cy="-228.8" rx="10.8" ry="10.8"/>
<text text-anchor="middle" x="118" y="-225.5" font-family="Helvetica,sans-Serif" font-size="11.00">∀</text>
</a>
</g>
</g>
<!-- c5&#45;node&#45;156&#45;900&#45;&gt;c7&#45;node&#45;156&#45;901 -->
<g id="edge23" class="edge">
<title>c5&#45;node&#45;156&#45;900&#45;&gt;c7&#45;node&#45;156&#45;901</title>
<g id="a_edge23"><a xlink:title="ProdTerm">
<path fill="none" stroke="black" stroke-width="0.6" d="M162.18,-262.62C152.94,-255.76 140.13,-246.24 130.68,-239.22"/>
<polygon fill="black" stroke="black" stroke-width="0.6" points="164.93,-266.84 161.96,-262.46 167.02,-264.03 164.93,-266.84"/>
<polygon fill="black" stroke="black" stroke-width="0.6" points="131.87,-237.92 126.81,-236.35 129.78,-240.73 131.87,-237.92"/>
</a>
</g>
</g>
<!-- c8&#45;node&#45;156&#45;905 -->
<g id="node9" class="node">
<title>c8&#45;node&#45;156&#45;905</title>
<g id="a_node9"><a xlink:title="app">
<ellipse fill="lightgrey" stroke="black" stroke-width="0" cx="190" cy="-141.6" rx="10.8" ry="10.8"/>
<text text-anchor="middle" x="190" y="-138.3" font-family="Helvetica,sans-Serif" font-size="11.00">@</text>
</a>
</g>
</g>
<!-- c7&#45;node&#45;156&#45;901&#45;&gt;c8&#45;node&#45;156&#45;905 -->
<g id="edge10" class="edge">
<title>c7&#45;node&#45;156&#45;901&#45;&gt;c8&#45;node&#45;156&#45;905</title>
<g id="a_edge10"><a xlink:title="ProdType">
<path fill="none" stroke="black" stroke-width="0.6" d="M127.18,-216.94C140.84,-200.78 166.39,-170.54 180.33,-154.05"/>
<ellipse fill="black" stroke="black" stroke-width="0.6" cx="125.87" cy="-218.48" rx="2" ry="2"/>
<polygon fill="black" stroke="black" stroke-width="0.6" points="181.45,-155.42 183.34,-150.48 178.78,-153.16 181.45,-155.42"/>
</a>
</g>
</g>
<!-- c13&#45;node&#45;156&#45;911 -->
<g id="node14" class="node">
<title>c13&#45;node&#45;156&#45;911</title>
<g id="a_node14"><a xlink:title="app">
<ellipse fill="lightgrey" stroke="black" stroke-width="0" cx="118" cy="-185.2" rx="10.8" ry="10.8"/>
<text text-anchor="middle" x="118" y="-181.9" font-family="Helvetica,sans-Serif" font-size="11.00">@</text>
</a>
</g>
</g>
<!-- c7&#45;node&#45;156&#45;901&#45;&gt;c13&#45;node&#45;156&#45;911 -->
<g id="edge22" class="edge">
<title>c7&#45;node&#45;156&#45;901&#45;&gt;c13&#45;node&#45;156&#45;911</title>
<g id="a_edge22"><a xlink:title="ProdTerm">
<path fill="none" stroke="black" stroke-width="0.6" d="M118,-213.12C118,-209.35 118,-205.28 118,-201.47"/>
<polygon fill="black" stroke="black" stroke-width="0.6" points="116.25,-217.85 118,-212.85 119.75,-217.85 116.25,-217.85"/>
<polygon fill="black" stroke="black" stroke-width="0.6" points="119.75,-201.7 118,-196.7 116.25,-201.7 119.75,-201.7"/>
</a>
</g>
</g>
<!-- c9&#45;node&#45;156&#45;903 -->
<g id="node10" class="node">
<title>c9&#45;node&#45;156&#45;903</title>
<g id="a_node10"><a xlink:title="app">
<ellipse fill="lightgrey" stroke="black" stroke-width="0" cx="189" cy="-98" rx="10.8" ry="10.8"/>
<text text-anchor="middle" x="189" y="-94.7" font-family="Helvetica,sans-Serif" font-size="11.00">@</text>
</a>
</g>
</g>
<!-- c8&#45;node&#45;156&#45;905&#45;&gt;c9&#45;node&#45;156&#45;903 -->
<g id="edge7" class="edge">
<title>c8&#45;node&#45;156&#45;905&#45;&gt;c9&#45;node&#45;156&#45;903</title>
<g id="a_edge7"><a xlink:title="AppFun">
<path fill="none" stroke="black" stroke-width="0.6" d="M189.66,-126.62C189.57,-122.64 189.46,-118.29 189.37,-114.23"/>
<ellipse fill="black" stroke="black" stroke-width="0.6" cx="189.71" cy="-128.65" rx="2" ry="2"/>
<polygon fill="black" stroke="black" stroke-width="0.6" points="191.12,-114.46 189.25,-109.5 187.62,-114.54 191.12,-114.46"/>
</a>
</g>
</g>
<!-- c12&#45;node&#45;156&#45;904 -->
<g id="node13" class="node">
<title>c12&#45;node&#45;156&#45;904</title>
<g id="a_node13"><a xlink:title="rel">
<ellipse fill="lightgrey" stroke="black" stroke-width="0" cx="229" cy="-98" rx="10.8" ry="10.8"/>
<text text-anchor="middle" x="229" y="-94.7" font-family="Helvetica,sans-Serif" font-size="11.00">↑</text>
</a>
</g>
</g>
<!-- c8&#45;node&#45;156&#45;905&#45;&gt;c12&#45;node&#45;156&#45;904 -->
<g id="edge9" class="edge">
<title>c8&#45;node&#45;156&#45;905&#45;&gt;c12&#45;node&#45;156&#45;904</title>
<g id="a_edge9"><a xlink:title="AppArg">
<path fill="none" stroke="black" stroke-width="0.6" d="M200.41,-129.49C205.94,-123.59 212.73,-116.36 218.3,-110.41"/>
<polygon fill="black" stroke="black" stroke-width="0.6" points="195.72,-131.94 200.42,-129.49 198.28,-134.33 195.72,-131.94"/>
<polygon fill="black" stroke="black" stroke-width="0.6" points="219.52,-111.67 221.66,-106.83 216.97,-109.28 219.52,-111.67"/>
</a>
</g>
</g>
<!-- c10&#45;node&#45;156&#45;29 -->
<g id="node11" class="node">
<title>c10&#45;node&#45;156&#45;29</title>
<g id="a_node11"><a xlink:href="/coq-tactician-stdlib.8.11.dev/theories/Init/Logic/definition/29?ignore_edges=7&amp;unshare_nodes=3&amp;unshare_nodes=5&amp;unshare_nodes=6&amp;unshare_nodes=7&amp;unshare_nodes=8&amp;max_depth=0&amp;max_size=100" xlink:title="ManualConstant Coq.Init.Logic.iff">
<path fill="lightgrey" stroke="black" stroke-width="0" d="M225.8,-65.2C225.8,-65.2 186.2,-65.2 186.2,-65.2 182.6,-65.2 179,-61.6 179,-58 179,-58 179,-50.8 179,-50.8 179,-47.2 182.6,-43.6 186.2,-43.6 186.2,-43.6 225.8,-43.6 225.8,-43.6 229.4,-43.6 233,-47.2 233,-50.8 233,-50.8 233,-58 233,-58 233,-61.6 229.4,-65.2 225.8,-65.2"/>
<text text-anchor="middle" x="206" y="-51.1" font-family="Helvetica,sans-Serif" font-size="11.00">iff</text>
</a>
</g>
</g>
<!-- c9&#45;node&#45;156&#45;903&#45;&gt;c10&#45;node&#45;156&#45;29 -->
<g id="edge4" class="edge">
<title>c9&#45;node&#45;156&#45;903&#45;&gt;c10&#45;node&#45;156&#45;29</title>
<g id="a_edge4"><a xlink:title="AppFun">
<path fill="none" stroke="black" stroke-width="0.6" d="M194.26,-84.13C196.03,-79.81 198.01,-74.95 199.84,-70.47"/>
<ellipse fill="black" stroke="black" stroke-width="0.6" cx="193.48" cy="-86.05" rx="2" ry="2"/>
<polygon fill="black" stroke="black" stroke-width="0.6" points="201.43,-71.21 201.7,-65.92 198.19,-69.89 201.43,-71.21"/>
</a>
</g>
</g>
<!-- c11&#45;node&#45;156&#45;902 -->
<g id="node12" class="node">
<title>c11&#45;node&#45;156&#45;902</title>
<g id="a_node12"><a xlink:title="rel">
<ellipse fill="lightgrey" stroke="black" stroke-width="0" cx="110" cy="-54.4" rx="10.8" ry="10.8"/>
<text text-anchor="middle" x="110" y="-51.1" font-family="Helvetica,sans-Serif" font-size="11.00">↑</text>
</a>
</g>
</g>
<!-- c9&#45;node&#45;156&#45;903&#45;&gt;c11&#45;node&#45;156&#45;902 -->
<g id="edge6" class="edge">
<title>c9&#45;node&#45;156&#45;903&#45;&gt;c11&#45;node&#45;156&#45;902</title>
<g id="a_edge6"><a xlink:title="AppArg">
<path fill="none" stroke="black" stroke-width="0.6" d="M175.27,-89.77C160.87,-82.19 138.35,-70.33 123.89,-62.71"/>
<polygon fill="black" stroke="black" stroke-width="0.6" points="178.86,-93.64 175.25,-89.76 180.49,-90.54 178.86,-93.64"/>
<polygon fill="black" stroke="black" stroke-width="0.6" points="125,-61.32 119.76,-60.54 123.37,-64.42 125,-61.32"/>
</a>
</g>
</g>
<!-- c11&#45;node&#45;156&#45;902&#45;&gt;c3&#45;node&#45;156&#45;899 -->
<g id="edge5" class="edge">
<title>c11&#45;node&#45;156&#45;902&#45;&gt;c3&#45;node&#45;156&#45;899</title>
<g id="a_edge5"><a xlink:title="RelPointer">
<path fill="none" stroke="black" stroke-width="0.6" d="M94.98,-56.7C75.02,-59.2 39.87,-66.44 19,-87.2 1.14,-104.96 0,-115.41 0,-140.6 0,-229.8 0,-229.8 0,-229.8 0,-273.29 44.24,-261.62 82,-283.2 86.69,-285.88 114.57,-299.61 131.95,-308.13"/>
<ellipse fill="black" stroke="black" stroke-width="0.6" cx="97.18" cy="-56.44" rx="2" ry="2"/>
<polygon fill="black" stroke="black" stroke-width="0.6" points="130.89,-309.56 136.15,-310.19 132.43,-306.41 130.89,-309.56"/>
</a>
</g>
</g>
<!-- c12&#45;node&#45;156&#45;904&#45;&gt;c5&#45;node&#45;156&#45;900 -->
<g id="edge8" class="edge">
<title>c12&#45;node&#45;156&#45;904&#45;&gt;c5&#45;node&#45;156&#45;900</title>
<g id="a_edge8"><a xlink:title="RelPointer">
<path fill="none" stroke="black" stroke-width="0.6" d="M230.21,-113.13C231.83,-139.63 232.3,-197.88 210,-239.6 204.79,-249.35 195.33,-257.52 187.42,-263.14"/>
<ellipse fill="black" stroke="black" stroke-width="0.6" cx="230.05" cy="-110.86" rx="2" ry="2"/>
<polygon fill="black" stroke="black" stroke-width="0.6" points="186.65,-261.54 183.49,-265.79 188.61,-264.44 186.65,-261.54"/>
</a>
</g>
</g>
<!-- c14&#45;node&#45;156&#45;909 -->
<g id="node15" class="node">
<title>c14&#45;node&#45;156&#45;909</title>
<g id="a_node15"><a xlink:title="app">
<ellipse fill="lightgrey" stroke="black" stroke-width="0" cx="110" cy="-141.6" rx="10.8" ry="10.8"/>
<text text-anchor="middle" x="110" y="-138.3" font-family="Helvetica,sans-Serif" font-size="11.00">@</text>
</a>
</g>
</g>
<!-- c13&#45;node&#45;156&#45;911&#45;&gt;c14&#45;node&#45;156&#45;909 -->
<g id="edge18" class="edge">
<title>c13&#45;node&#45;156&#45;911&#45;&gt;c14&#45;node&#45;156&#45;909</title>
<g id="a_edge18"><a xlink:title="AppFun">
<path fill="none" stroke="black" stroke-width="0.6" d="M115.38,-170.57C114.6,-166.51 113.74,-162.03 112.94,-157.87"/>
<ellipse fill="black" stroke="black" stroke-width="0.6" cx="115.79" cy="-172.71" rx="2" ry="2"/>
<polygon fill="black" stroke="black" stroke-width="0.6" points="114.66,-157.57 112,-152.99 111.22,-158.23 114.66,-157.57"/>
</a>
</g>
</g>
<!-- c20&#45;node&#45;156&#45;910 -->
<g id="node21" class="node">
<title>c20&#45;node&#45;156&#45;910</title>
<g id="a_node21"><a xlink:title="app">
<ellipse fill="lightgrey" stroke="black" stroke-width="0" cx="150" cy="-141.6" rx="10.8" ry="10.8"/>
<text text-anchor="middle" x="150" y="-138.3" font-family="Helvetica,sans-Serif" font-size="11.00">@</text>
</a>
</g>
</g>
<!-- c13&#45;node&#45;156&#45;911&#45;&gt;c20&#45;node&#45;156&#45;910 -->
<g id="edge21" class="edge">
<title>c13&#45;node&#45;156&#45;911&#45;&gt;c20&#45;node&#45;156&#45;910</title>
<g id="a_edge21"><a xlink:title="AppArg">
<path fill="none" stroke="black" stroke-width="0.6" d="M127.04,-172.45C131.27,-166.96 136.3,-160.41 140.57,-154.86"/>
<polygon fill="black" stroke="black" stroke-width="0.6" points="122.67,-175.27 127.1,-172.37 125.44,-177.4 122.67,-175.27"/>
<polygon fill="black" stroke="black" stroke-width="0.6" points="141.74,-156.21 143.4,-151.18 138.96,-154.08 141.74,-156.21"/>
</a>
</g>
</g>
<!-- c15&#45;node&#45;156&#45;29 -->
<g id="node16" class="node">
<title>c15&#45;node&#45;156&#45;29</title>
<g id="a_node16"><a xlink:href="/coq-tactician-stdlib.8.11.dev/theories/Init/Logic/definition/29?ignore_edges=7&amp;unshare_nodes=3&amp;unshare_nodes=5&amp;unshare_nodes=6&amp;unshare_nodes=7&amp;unshare_nodes=8&amp;max_depth=0&amp;max_size=100" xlink:title="ManualConstant Coq.Init.Logic.iff">
<path fill="lightgrey" stroke="black" stroke-width="0" d="M74.8,-108.8C74.8,-108.8 35.2,-108.8 35.2,-108.8 31.6,-108.8 28,-105.2 28,-101.6 28,-101.6 28,-94.4 28,-94.4 28,-90.8 31.6,-87.2 35.2,-87.2 35.2,-87.2 74.8,-87.2 74.8,-87.2 78.4,-87.2 82,-90.8 82,-94.4 82,-94.4 82,-101.6 82,-101.6 82,-105.2 78.4,-108.8 74.8,-108.8"/>
<text text-anchor="middle" x="55" y="-94.7" font-family="Helvetica,sans-Serif" font-size="11.00">iff</text>
</a>
</g>
</g>
<!-- c14&#45;node&#45;156&#45;909&#45;&gt;c15&#45;node&#45;156&#45;29 -->
<g id="edge11" class="edge">
<title>c14&#45;node&#45;156&#45;909&#45;&gt;c15&#45;node&#45;156&#45;29</title>
<g id="a_edge11"><a xlink:title="AppFun">
<path fill="none" stroke="black" stroke-width="0.6" d="M98.72,-132.07C91.1,-126.31 80.9,-118.59 72.26,-112.06"/>
<ellipse fill="black" stroke="black" stroke-width="0.6" cx="100.52" cy="-133.43" rx="2" ry="2"/>
<polygon fill="black" stroke="black" stroke-width="0.6" points="73.42,-110.74 68.38,-109.12 71.31,-113.53 73.42,-110.74"/>
</a>
</g>
</g>
<!-- c16&#45;node&#45;156&#45;908 -->
<g id="node17" class="node">
<title>c16&#45;node&#45;156&#45;908</title>
<g id="a_node17"><a xlink:title="app">
<ellipse fill="lightgrey" stroke="black" stroke-width="0" cx="111" cy="-98" rx="10.8" ry="10.8"/>
<text text-anchor="middle" x="111" y="-94.7" font-family="Helvetica,sans-Serif" font-size="11.00">@</text>
</a>
</g>
</g>
<!-- c14&#45;node&#45;156&#45;909&#45;&gt;c16&#45;node&#45;156&#45;908 -->
<g id="edge17" class="edge">
<title>c14&#45;node&#45;156&#45;909&#45;&gt;c16&#45;node&#45;156&#45;908</title>
<g id="a_edge17"><a xlink:title="AppArg">
<path fill="none" stroke="black" stroke-width="0.6" d="M110.35,-125.92C110.44,-122.15 110.54,-118.08 110.63,-114.27"/>
<polygon fill="black" stroke="black" stroke-width="0.6" points="108.49,-130.61 110.36,-125.65 111.99,-130.69 108.49,-130.61"/>
<polygon fill="black" stroke="black" stroke-width="0.6" points="112.38,-114.54 110.75,-109.5 108.88,-114.46 112.38,-114.54"/>
</a>
</g>
</g>
<!-- c16&#45;node&#45;156&#45;908&#45;&gt;c11&#45;node&#45;156&#45;902 -->
<g id="edge16" class="edge">
<title>c16&#45;node&#45;156&#45;908&#45;&gt;c11&#45;node&#45;156&#45;902</title>
<g id="a_edge16"><a xlink:title="AppArg">
<path fill="none" stroke="black" stroke-width="0.6" d="M110.65,-82.32C110.56,-78.55 110.46,-74.48 110.37,-70.67"/>
<polygon fill="black" stroke="black" stroke-width="0.6" points="109.01,-87.09 110.64,-82.05 112.51,-87.01 109.01,-87.09"/>
<polygon fill="black" stroke="black" stroke-width="0.6" points="112.12,-70.86 110.25,-65.9 108.62,-70.94 112.12,-70.86"/>
</a>
</g>
</g>
<!-- c17&#45;node&#45;156&#45;907 -->
<g id="node18" class="node">
<title>c17&#45;node&#45;156&#45;907</title>
<g id="a_node18"><a xlink:title="app">
<ellipse fill="lightgrey" stroke="black" stroke-width="0" cx="150" cy="-54.4" rx="10.8" ry="10.8"/>
<text text-anchor="middle" x="150" y="-51.1" font-family="Helvetica,sans-Serif" font-size="11.00">@</text>
</a>
</g>
</g>
<!-- c16&#45;node&#45;156&#45;908&#45;&gt;c17&#45;node&#45;156&#45;907 -->
<g id="edge15" class="edge">
<title>c16&#45;node&#45;156&#45;908&#45;&gt;c17&#45;node&#45;156&#45;907</title>
<g id="a_edge15"><a xlink:title="AppFun">
<path fill="none" stroke="black" stroke-width="0.6" d="M120.65,-86.71C126.37,-80.61 133.62,-72.87 139.48,-66.62"/>
<ellipse fill="black" stroke="black" stroke-width="0.6" cx="119.37" cy="-88.08" rx="2" ry="2"/>
<polygon fill="black" stroke="black" stroke-width="0.6" points="140.52,-68.07 142.66,-63.23 137.97,-65.68 140.52,-68.07"/>
</a>
</g>
</g>
<!-- c18&#45;node&#45;156&#45;12 -->
<g id="node19" class="node">
<title>c18&#45;node&#45;156&#45;12</title>
<g id="a_node19"><a xlink:href="/coq-tactician-stdlib.8.11.dev/theories/Init/Logic/definition/12?ignore_edges=7&amp;unshare_nodes=3&amp;unshare_nodes=5&amp;unshare_nodes=6&amp;unshare_nodes=7&amp;unshare_nodes=8&amp;max_depth=0&amp;max_size=100" xlink:title="Inductive Coq.Init.Logic.and">
<path fill="lightgrey" stroke="black" stroke-width="0" d="M169.8,-21.6C169.8,-21.6 130.2,-21.6 130.2,-21.6 126.6,-21.6 123,-18 123,-14.4 123,-14.4 123,-7.2 123,-7.2 123,-3.6 126.6,0 130.2,0 130.2,0 169.8,0 169.8,0 173.4,0 177,-3.6 177,-7.2 177,-7.2 177,-14.4 177,-14.4 177,-18 173.4,-21.6 169.8,-21.6"/>
<text text-anchor="middle" x="150" y="-7.5" font-family="Helvetica,sans-Serif" font-size="11.00">and</text>
</a>
</g>
</g>
<!-- c17&#45;node&#45;156&#45;907&#45;&gt;c18&#45;node&#45;156&#45;12 -->
<g id="edge12" class="edge">
<title>c17&#45;node&#45;156&#45;907&#45;&gt;c18&#45;node&#45;156&#45;12</title>
<g id="a_edge12"><a xlink:title="AppFun">
<path fill="none" stroke="black" stroke-width="0.6" d="M150,-39.42C150,-35.44 150,-31.09 150,-27.03"/>
<ellipse fill="black" stroke="black" stroke-width="0.6" cx="150" cy="-41.45" rx="2" ry="2"/>
<polygon fill="black" stroke="black" stroke-width="0.6" points="151.75,-27.3 150,-22.3 148.25,-27.3 151.75,-27.3"/>
</a>
</g>
</g>
<!-- c19&#45;node&#45;156&#45;906 -->
<g id="node20" class="node">
<title>c19&#45;node&#45;156&#45;906</title>
<g id="a_node20"><a xlink:title="rel">
<ellipse fill="lightgrey" stroke="black" stroke-width="0" cx="237" cy="-10.8" rx="10.8" ry="10.8"/>
<text text-anchor="middle" x="237" y="-7.5" font-family="Helvetica,sans-Serif" font-size="11.00">↑</text>
</a>
</g>
</g>
<!-- c17&#45;node&#45;156&#45;907&#45;&gt;c19&#45;node&#45;156&#45;906 -->
<g id="edge14" class="edge">
<title>c17&#45;node&#45;156&#45;907&#45;&gt;c19&#45;node&#45;156&#45;906</title>
<g id="a_edge14"><a xlink:title="AppArg">
<path fill="none" stroke="black" stroke-width="0.6" d="M163.71,-46.66C165.81,-45.63 167.96,-44.58 170,-43.6 188.22,-34.81 209.32,-24.83 222.9,-18.43"/>
<polygon fill="black" stroke="black" stroke-width="0.6" points="158.45,-47.28 163.71,-46.65 159.99,-50.43 158.45,-47.28"/>
<polygon fill="black" stroke="black" stroke-width="0.6" points="223.28,-20.19 227.06,-16.47 221.79,-17.02 223.28,-20.19"/>
</a>
</g>
</g>
<!-- c19&#45;node&#45;156&#45;906&#45;&gt;c1&#45;node&#45;156&#45;898 -->
<g id="edge13" class="edge">
<title>c19&#45;node&#45;156&#45;906&#45;&gt;c1&#45;node&#45;156&#45;898</title>
<g id="a_edge13"><a xlink:title="RelPointer">
<path fill="none" stroke="black" stroke-width="0.6" d="M244.32,-23.68C253.49,-39.7 268,-69.43 268,-97 268,-273.4 268,-273.4 268,-273.4 268,-324.72 194.55,-347.69 161.63,-355.41"/>
<ellipse fill="black" stroke="black" stroke-width="0.6" cx="243.28" cy="-21.89" rx="2" ry="2"/>
<polygon fill="black" stroke="black" stroke-width="0.6" points="161.37,-353.68 156.87,-356.48 162.13,-357.09 161.37,-353.68"/>
</a>
</g>
</g>
<!-- c20&#45;node&#45;156&#45;910&#45;&gt;c12&#45;node&#45;156&#45;904 -->
<g id="edge20" class="edge">
<title>c20&#45;node&#45;156&#45;910&#45;&gt;c12&#45;node&#45;156&#45;904</title>
<g id="a_edge20"><a xlink:title="AppArg">
<path fill="none" stroke="black" stroke-width="0.6" d="M163.73,-133.37C178.13,-125.79 200.65,-113.93 215.11,-106.31"/>
<polygon fill="black" stroke="black" stroke-width="0.6" points="158.51,-134.14 163.75,-133.36 160.14,-137.24 158.51,-134.14"/>
<polygon fill="black" stroke="black" stroke-width="0.6" points="215.63,-108.02 219.24,-104.14 214,-104.92 215.63,-108.02"/>
</a>
</g>
</g>
<!-- c20&#45;node&#45;156&#45;910&#45;&gt;c17&#45;node&#45;156&#45;907 -->
<g id="edge19" class="edge">
<title>c20&#45;node&#45;156&#45;910&#45;&gt;c17&#45;node&#45;156&#45;907</title>
<g id="a_edge19"><a xlink:title="AppFun">
<path fill="none" stroke="black" stroke-width="0.6" d="M150,-126.24C150,-110.89 150,-86.61 150,-70.85"/>
<ellipse fill="black" stroke="black" stroke-width="0.6" cx="150" cy="-128.53" rx="2" ry="2"/>
<polygon fill="black" stroke="black" stroke-width="0.6" points="151.75,-70.97 150,-65.97 148.25,-70.97 151.75,-70.97"/>
</a>
</g>
</g>
</g>
</svg>
